<svg width="269" height="324" viewBox="0 0 269 324" fill="none" xmlns="http://www.w3.org/2000/svg">
<path opacity="0.03" d="M1.31697 76.6091C-3.8738 89.6464 7.6214 103.76 21.6988 100.318C54.9515 91.8291 97.7994 74.4538 153.022 42.5712L112.745 7.59065C112.165 6.5866 113.381 5.21507 114.463 5.92927L181.637 26.0502C181.637 26.0502 226.84 4.63796 228.579 7.65009C230.318 10.6622 189.173 39.1028 189.173 39.1028L173.011 107.337C173.089 108.631 171.293 108.999 170.713 107.995L160.558 55.6238C52.6231 117.94 16.3126 166.347 6.02951 198.389C1.41843 212.431 14.9217 225.385 28.6316 220.147C55.5494 209.961 87.6219 194.791 125.273 173.052L84.9966 138.072C84.4169 137.068 85.6331 135.696 86.7148 136.411L153.889 156.531C153.889 156.531 199.091 135.119 200.83 138.131C202.569 141.143 161.425 169.584 161.425 169.584L145.263 237.819C145.341 239.113 143.545 239.48 142.965 238.476L132.809 186.105C95.1577 207.843 65.9837 228.034 43.7034 246.252C32.8919 256.51 37.3588 274.681 51.8245 277.709C84.7153 284.824 144.793 277.582 252.727 215.266L212.45 180.286C211.871 179.282 213.087 177.91 214.169 178.624L281.343 198.745C281.343 198.745 326.545 177.333 328.284 180.345C330.023 183.357 288.878 211.798 288.878 211.798L272.717 280.033C272.794 281.327 270.999 281.694 270.419 280.69L260.263 228.319C205.041 260.202 168.57 288.621 144.592 313.175C134.572 323.645 141.047 340.657 154.933 342.68C199.179 348.595 245.371 339.33 285.879 313.265C370.12 258.604 398.743 147.029 351.111 58.7299C298.841 -37.6013 177.608 -71.3586 83.7302 -17.1581C45.0745 5.15971 17.469 38.5012 1.31697 76.6091Z" fill="black"></path>
</svg>