<svg width="32" height="37" viewBox="0 0 32 37" fill="none" xmlns="http://www.w3.org/2000/svg">
<path fill-rule="evenodd" clip-rule="evenodd" d="M26.9454 1.24647C22.5474 -1.29278 16.9232 0.214203 14.384 4.61231L1.77526 26.4512C-0.0413723 29.5977 1.03975 33.6325 4.18625 35.4492C7.33276 37.2658 11.3676 36.1847 13.1842 33.0382L25.7929 11.1993C26.8869 9.30434 26.2317 6.85888 24.3368 5.76486C22.4418 4.67081 19.9964 5.32609 18.9024 7.221L6.47844 28.7399L8.85059 30.1094L21.2745 8.59056C21.6257 7.98228 22.3589 7.78581 22.9672 8.13701C23.5755 8.4882 23.7719 9.22142 23.4207 9.82969L10.812 31.6686C9.73825 33.5285 7.41569 34.1508 5.55582 33.077C3.69595 32.0032 3.07362 29.6807 4.14742 27.8208L16.7561 5.98187C18.5525 2.87041 22.4644 1.82222 25.5759 3.61862C28.6874 5.41503 29.7355 9.32692 27.9391 12.4384L15.5152 33.9572L17.8874 35.3268L30.3113 13.808C32.8505 9.40985 31.3435 3.78571 26.9454 1.24647Z" fill="#042FAB"/>
</svg>
